<?xml version="1.0" standalone="no"?>
<!DOCTYPE svg PUBLIC "-//W3C//DTD SVG 20010904//EN"
 "http://www.w3.org/TR/2001/REC-SVG-20010904/DTD/svg10.dtd">
<svg version="1.0" xmlns="http://www.w3.org/2000/svg"
 width="360.000000pt" height="360.000000pt" viewBox="0 0 360.000000 360.000000"
 preserveAspectRatio="xMidYMid meet">
<metadata>
Created by potrace 1.14, written by Peter Selinger 2001-2017
</metadata>
<g transform="translate(0.000000,360.000000) scale(0.100000,-0.100000)"
fill="#000000" stroke="none">
<path d="M2334 3135 c-16 -7 -46 -27 -68 -44 -21 -17 -43 -31 -47 -31 -5 0
-21 -19 -36 -42 -16 -24 -37 -50 -48 -60 -12 -9 -34 -40 -50 -70 -15 -29 -49
-78 -75 -108 -25 -30 -57 -71 -70 -90 -35 -50 -42 -59 -69 -83 -13 -12 -31
-30 -40 -39 -24 -28 -37 -22 -67 30 -15 26 -46 70 -68 98 -122 153 -216 124
-356 -110 -43 -71 -105 -149 -164 -206 -66 -63 -134 -167 -178 -272 -26 -62
-31 -86 -32 -158 0 -73 4 -92 26 -136 15 -28 39 -65 53 -82 l26 -30 -23 -8
c-66 -20 -158 -74 -210 -122 -32 -30 -58 -59 -58 -66 0 -6 -12 -24 -26 -41
-48 -56 -65 -94 -69 -151 -3 -31 -11 -64 -19 -73 -16 -19 -26 -48 -32 -98 -3
-21 -7 -39 -9 -42 -3 -2 2 -15 11 -29 15 -23 15 -79 0 -157 -2 -11 9 -42 24
-70 16 -27 38 -76 50 -107 14 -39 28 -59 43 -64 12 -4 44 -22 70 -40 42 -29
58 -34 108 -34 32 0 60 -4 63 -8 7 -12 95 -14 132 -3 19 5 37 5 49 -2 18 -9
94 -16 215 -19 102 -2 498 129 526 174 4 5 16 0 29 -12 l23 -22 34 38 c18 20
43 48 56 62 12 14 22 29 22 33 0 5 7 9 16 9 12 0 15 -6 10 -22 -18 -70 -19
-73 -7 -62 6 6 17 38 24 71 7 34 21 71 31 82 l19 21 25 -22 c27 -25 56 -83 83
-163 15 -44 17 -46 18 -20 1 35 -24 92 -73 169 -31 49 -34 59 -24 76 7 11 16
20 20 20 8 0 11 -3 70 -77 23 -29 45 -53 50 -53 5 0 -14 29 -42 64 -27 35 -50
70 -50 79 0 8 15 26 34 40 31 25 35 25 48 9 23 -27 57 -104 70 -160 7 -29 16
-52 19 -52 4 0 3 19 -2 41 -6 23 -9 49 -7 58 3 18 -42 101 -66 121 -20 15 -21
44 -3 59 11 8 21 2 48 -27 40 -44 79 -98 79 -109 0 -4 9 -19 20 -33 16 -20 19
-21 14 -5 -10 29 -89 147 -113 169 -23 21 -26 37 -11 64 5 9 17 34 26 55 35
79 314 287 385 287 10 0 19 5 19 10 0 14 -11 13 -54 -5 -20 -8 -39 -15 -42
-14 -4 0 -10 -3 -13 -8 -3 -4 -26 -18 -51 -31 -25 -12 -65 -40 -89 -62 -25
-22 -47 -38 -49 -35 -2 2 11 24 29 50 35 49 110 105 141 105 10 0 18 7 18 15
0 19 0 19 -51 -7 -57 -30 -115 -90 -170 -175 -24 -37 -46 -70 -50 -73 -3 -3
-17 -25 -31 -48 -14 -24 -28 -39 -32 -34 -6 11 9 49 86 212 28 58 62 143 78
190 28 86 84 306 95 370 3 19 7 46 10 60 5 28 10 74 22 230 13 171 7 405 -13
535 -26 167 -49 234 -100 293 l-36 42 -72 -1 c-40 -1 -86 -7 -102 -14z m-274
-2285 c0 -5 -2 -10 -4 -10 -3 0 -8 5 -11 10 -3 6 -1 10 4 10 6 0 11 -4 11 -10z
m-20 -30 c0 -5 -4 -10 -10 -10 -5 0 -10 5 -10 10 0 6 5 10 10 10 6 0 10 -4 10
-10z"/>
</g>
</svg>
